<svg width="20" height="20" viewBox="0 0 20 20" fill="none" xmlns="http://www.w3.org/2000/svg">
<path d="M10 0H5.66667C5.48258 0 5.33333 0.149251 5.33333 0.333333V2.66667H0.333333C0.149251 2.66667 0 2.81592 0 3V19.6667C0 19.8507 0.149251 20 0.333333 20H10C10.1841 20 10.3333 19.8507 10.3333 19.6667V0.333333C10.3333 0.149251 10.1841 0 10 0ZM9.66667 17.3333H6V16.6667H9.66667V17.3333ZM0.666667 5H5.33333V15H0.666667V5ZM9.66667 3.66667H6V2.66667H9.66667V3.66667ZM0.666667 15.6667H5.33333V16.6667H0.666667V15.6667ZM6 16V4.33333H9.66667V16H6ZM9.66667 0.666667V2H6V0.666667H9.66667ZM5.33333 3.33333V4.33333H0.666667V3.33333H5.33333ZM0.666667 17.3333H5.33333V19.3333H0.666667V17.3333ZM6 19.3333V18H9.66667V19.3333H6Z" fill="url(#paint0_linear)"/>
<path d="M19.9893 18.2494L15.9893 2.91604C15.967 2.8301 15.9113 2.75669 15.8345 2.71194C15.7578 2.66734 15.6665 2.65513 15.5808 2.67808L10.5807 4.01142C10.4037 4.05862 10.2979 4.23993 10.3441 4.41734L14.3441 19.7507C14.3664 19.8366 14.4222 19.91 14.499 19.9546C14.5757 19.999 14.667 20.0111 14.7526 19.988L19.7526 18.6546C19.9294 18.6074 20.035 18.4265 19.9893 18.2494V18.2494ZM11.604 6.60598L15.96 5.44468L16.1167 6.04462L11.7611 7.2077L11.604 6.60598ZM16.285 6.69143L18.2183 14.1073L13.864 15.2691L11.9307 7.85272L16.285 6.69143ZM18.3881 14.7526L18.7294 16.0607L14.3734 17.222L14.0334 15.9144L18.3881 14.7526ZM15.4287 3.40839L15.7917 4.79999L11.4357 5.96096L11.0731 4.57001L15.4287 3.40839ZM14.9046 19.2583L14.5417 17.8667L18.8977 16.7051L19.2603 18.0961L14.9046 19.2583Z" fill="url(#paint1_linear)"/>
<path d="M4.33331 6H1.66665C1.48256 6 1.33331 6.14925 1.33331 6.33333V9C1.33331 9.18408 1.48256 9.33333 1.66665 9.33333H4.33331C4.51739 9.33333 4.66665 9.18408 4.66665 9V6.33333C4.66665 6.14925 4.51739 6 4.33331 6ZM3.99998 8.66667H1.99998V6.66667H3.99998V8.66667Z" fill="url(#paint2_linear)"/>
<defs>
<linearGradient id="paint0_linear" x1="5.16667" y1="0" x2="5.16667" y2="20" gradientUnits="userSpaceOnUse">
<stop stop-color="#6029FB"/>
<stop offset="1" stop-color="#A956C4"/>
</linearGradient>
<linearGradient id="paint1_linear" x1="15.1666" y1="2.66675" x2="15.1666" y2="19.9995" gradientUnits="userSpaceOnUse">
<stop stop-color="#6029FB"/>
<stop offset="1" stop-color="#A956C4"/>
</linearGradient>
<linearGradient id="paint2_linear" x1="2.99998" y1="6" x2="2.99998" y2="9.33333" gradientUnits="userSpaceOnUse">
<stop stop-color="#6029FB"/>
<stop offset="1" stop-color="#A956C4"/>
</linearGradient>
</defs>
</svg>
