<svg width="22" height="14" viewBox="0 0 22 14" fill="none" xmlns="http://www.w3.org/2000/svg">
<path d="M21.7924 6.24274L17.0993 1.27057C16.8108 0.964649 16.3294 0.950697 16.0234 1.23938C15.718 1.52782 15.7038 2.00954 15.9925 2.3152L20.1927 6.76482L15.9925 11.2149C15.7038 11.5206 15.718 12.0021 16.0234 12.2908C16.1705 12.4296 16.3586 12.4983 16.5458 12.4983C16.748 12.4983 16.9499 12.4181 17.0993 12.2601L21.7925 7.28763C22.0692 6.99415 22.0692 6.536 21.7924 6.24274Z" fill="url(#paint0_linear)"/>
<path d="M12.1427 0.00738596C11.7274 -0.0460449 11.3387 0.19613 11.2753 0.548876L9.04285 12.9604C8.97943 13.3133 9.26484 13.6433 9.68037 13.6971C9.71944 13.7021 9.758 13.7045 9.79633 13.7045C10.1659 13.7045 10.4901 13.4754 10.5477 13.1557L12.7801 0.74412C12.8435 0.391143 12.5581 0.0612565 12.1427 0.00738596Z" fill="url(#paint1_linear)"/>
<path d="M6.00773 11.3105L1.80779 6.86062L6.00773 2.41084C6.29619 2.10513 6.28221 1.62337 5.97655 1.33496C5.67106 1.04652 5.18909 1.06047 4.90068 1.36616L0.207563 6.33832C-0.0691878 6.63158 -0.0691878 7.09001 0.207563 7.38326L4.90092 12.3557C5.05059 12.5142 5.25228 12.5941 5.45446 12.5941C5.64169 12.5941 5.8297 12.5251 5.97655 12.3864C6.28249 12.0979 6.29619 11.6162 6.00773 11.3105Z" fill="url(#paint2_linear)"/>
<defs>
<linearGradient id="paint0_linear" x1="18.8924" y1="1.03168" x2="18.8924" y2="12.4983" gradientUnits="userSpaceOnUse">
<stop stop-color="#5C27FE"/>
<stop offset="1" stop-color="#B05ABF"/>
</linearGradient>
<linearGradient id="paint1_linear" x1="10.9115" y1="0" x2="10.9115" y2="13.7045" gradientUnits="userSpaceOnUse">
<stop stop-color="#5C27FE"/>
<stop offset="1" stop-color="#B05ABF"/>
</linearGradient>
<linearGradient id="paint2_linear" x1="3.10768" y1="1.12744" x2="3.10768" y2="12.5941" gradientUnits="userSpaceOnUse">
<stop stop-color="#5C27FE"/>
<stop offset="1" stop-color="#B05ABF"/>
</linearGradient>
</defs>
</svg>
