<svg width="21" height="16" viewBox="0 0 21 16" fill="none" xmlns="http://www.w3.org/2000/svg">
<path d="M3.0567 16H1.56871L2.6209 15.0895C3.18823 14.5986 3.54251 13.9601 3.63776 13.2674C2.15732 12.4268 1.07476 11.3207 0.495268 10.0523C-0.0838141 8.78489 -0.156585 7.38965 0.284846 6.01742C0.814497 4.37088 2.05677 2.87012 3.78276 1.79154C5.65836 0.61952 7.99326 0 10.5351 0C13.7371 0 16.4361 0.796053 18.3401 2.30204C20.0553 3.65881 21 5.48889 21 7.45522C21 8.41053 20.7752 9.34005 20.3319 10.218C19.8731 11.1265 19.2013 11.9354 18.3352 12.6222C16.4286 14.1342 13.7314 14.9333 10.5351 14.9333C9.3485 14.9333 8.11033 14.7963 7.00488 14.5447C5.95852 15.4736 4.54063 16 3.0567 16ZM10.5351 1.06667C5.43832 1.06667 2.31092 3.69682 1.47239 6.30347C0.680009 8.76676 1.84808 11.0943 4.597 12.5298L4.90415 12.6902L4.8947 13.0005C4.87596 13.6146 4.70676 14.2062 4.40388 14.741C5.14141 14.525 5.81064 14.1336 6.3347 13.5978L6.5953 13.3314L6.98175 13.4314C8.06624 13.7121 9.32816 13.8667 10.5351 13.8667C16.8783 13.8667 19.7673 10.5432 19.7673 7.45522C19.7673 5.79207 18.9651 4.24156 17.5083 3.08935C15.8354 1.76612 13.4241 1.06667 10.5351 1.06667Z" fill="url(#paint0_linear)"/>
<defs>
<linearGradient id="paint0_linear" x1="10.5" y1="0" x2="10.5" y2="16" gradientUnits="userSpaceOnUse">
<stop stop-color="#6029FB"/>
<stop offset="1" stop-color="#A956C4"/>
</linearGradient>
</defs>
</svg>
