<svg width="22" height="22" viewBox="0 0 22 22" fill="none" xmlns="http://www.w3.org/2000/svg">
<path d="M15.6234 13.5133C15.4263 13.3369 15.1236 13.3541 14.9481 13.5506C13.9504 14.6655 12.5118 15.3044 11 15.3044C9.48872 15.3044 8.04963 14.6655 7.05198 13.5506C6.8755 13.3541 6.57372 13.3369 6.37667 13.5133C6.17963 13.6893 6.16337 13.9916 6.33937 14.1886C7.51828 15.5058 9.21707 16.261 11 16.261C12.7835 16.261 14.4822 15.5053 15.6607 14.1886C15.8367 13.9916 15.8199 13.6893 15.6234 13.5133Z" fill="url(#paint0_linear)"/>
<path d="M11 0C4.9347 0 0 4.9347 0 11C0 17.0653 4.9347 22 11 22C17.0653 22 22 17.0653 22 11C22 4.9347 17.0653 0 11 0ZM11 21.0435C5.46174 21.0435 0.956522 16.5383 0.956522 11C0.956522 5.46174 5.46174 0.956522 11 0.956522C16.5383 0.956522 21.0435 5.46174 21.0435 11C21.0435 16.5383 16.5383 21.0435 11 21.0435Z" fill="url(#paint1_linear)"/>
<path d="M14.8261 7.6521C13.5075 7.6521 12.4348 8.72484 12.4348 10.0434C12.4348 10.3074 12.649 10.5217 12.913 10.5217C13.177 10.5217 13.3913 10.3074 13.3913 10.0434C13.3913 9.25236 14.035 8.60862 14.8261 8.60862C15.6171 8.60862 16.2609 9.25236 16.2609 10.0434C16.2609 10.3074 16.4751 10.5217 16.7391 10.5217C17.0031 10.5217 17.2174 10.3074 17.2174 10.0434C17.2174 8.72484 16.1447 7.6521 14.8261 7.6521Z" fill="url(#paint2_linear)"/>
<path d="M8.60868 10.0434C8.60868 10.3074 8.82294 10.5217 9.08694 10.5217C9.35094 10.5217 9.5652 10.3074 9.5652 10.0434C9.5652 8.72484 8.49246 7.6521 7.1739 7.6521C5.85533 7.6521 4.78259 8.72484 4.78259 10.0434C4.78259 10.3074 4.99685 10.5217 5.26085 10.5217C5.52485 10.5217 5.73911 10.3074 5.73911 10.0434C5.73911 9.25236 6.38285 8.60862 7.1739 8.60862C7.96494 8.60862 8.60868 9.25236 8.60868 10.0434Z" fill="url(#paint3_linear)"/>
<defs>
<linearGradient id="paint0_linear" x1="10.9999" y1="13.3914" x2="10.9999" y2="16.261" gradientUnits="userSpaceOnUse">
<stop stop-color="#6029FB"/>
<stop offset="1" stop-color="#A956C4"/>
</linearGradient>
<linearGradient id="paint1_linear" x1="11" y1="0" x2="11" y2="22" gradientUnits="userSpaceOnUse">
<stop stop-color="#6029FB"/>
<stop offset="1" stop-color="#A956C4"/>
</linearGradient>
<linearGradient id="paint2_linear" x1="14.8261" y1="7.6521" x2="14.8261" y2="10.5217" gradientUnits="userSpaceOnUse">
<stop stop-color="#6029FB"/>
<stop offset="1" stop-color="#A956C4"/>
</linearGradient>
<linearGradient id="paint3_linear" x1="7.1739" y1="7.6521" x2="7.1739" y2="10.5217" gradientUnits="userSpaceOnUse">
<stop stop-color="#6029FB"/>
<stop offset="1" stop-color="#A956C4"/>
</linearGradient>
</defs>
</svg>
