<svg width="22" height="22" viewBox="0 0 22 22" fill="none" xmlns="http://www.w3.org/2000/svg">
<path d="M11 0C4.92027 0 0 4.91979 0 11C0 17.0798 4.91979 22 11 22C17.0797 22 22 17.0802 22 11C22 4.92022 17.0802 0 11 0ZM11 20.2812C5.87022 20.2812 1.71875 16.1302 1.71875 11C1.71875 5.87018 5.86983 1.71875 11 1.71875C16.1298 1.71875 20.2812 5.86983 20.2812 11C20.2812 16.1298 16.1302 20.2812 11 20.2812Z" fill="url(#paint0_linear)"/>
<path d="M14.7635 13.5481L12.2153 10.9999L14.7635 8.45179C15.0991 8.11621 15.0991 7.57209 14.7635 7.23646C14.4278 6.90083 13.8837 6.90088 13.5482 7.23646L11 9.7846L8.45183 7.23646C8.11629 6.90083 7.57209 6.90083 7.2365 7.23646C6.90092 7.57209 6.90092 8.11621 7.23655 8.45179L9.78468 10.9999L7.23655 13.5481C6.90092 13.8837 6.90087 14.4278 7.2365 14.7634C7.57222 15.0991 8.11633 15.0989 8.45183 14.7634L11 12.2153L13.5482 14.7634C13.8837 15.099 14.4279 15.099 14.7635 14.7634C15.0991 14.4278 15.0991 13.8836 14.7635 13.5481Z" fill="url(#paint1_linear)"/>
<defs>
<linearGradient id="paint0_linear" x1="11" y1="0" x2="11" y2="22" gradientUnits="userSpaceOnUse">
<stop stop-color="#6029FB"/>
<stop offset="1" stop-color="#A956C4"/>
</linearGradient>
<linearGradient id="paint1_linear" x1="11" y1="6.98474" x2="11" y2="15.0151" gradientUnits="userSpaceOnUse">
<stop stop-color="#6029FB"/>
<stop offset="1" stop-color="#A956C4"/>
</linearGradient>
</defs>
</svg>
