<svg width="20" height="20" viewBox="0 0 22 22" fill="none" xmlns="http://www.w3.org/2000/svg">
<g clip-path="url(#clip0)">
<path d="M19.6198 4.48568L15.3229 0.188805C15.202 0.0679336 15.0381 0 14.8672 0H2.83594C2.47998 0 2.19141 0.288578 2.19141 0.644531V21.3555C2.19141 21.7114 2.47998 22 2.83594 22H19.1641C19.52 22 19.8086 21.7114 19.8086 21.3555V4.94141C19.8086 4.77048 19.7407 4.60655 19.6198 4.48568ZM15.5117 2.20056L17.608 4.29688H15.5117V2.20056ZM3.48047 20.7109V1.28906H14.2227V4.94141C14.2227 5.29736 14.5112 5.58594 14.8672 5.58594H18.5195V20.7109H3.48047Z" fill="url(#paint0_linear)"/>
<path d="M16.5859 18.0469H11.4297C11.0737 18.0469 10.7852 18.3355 10.7852 18.6914C10.7852 19.0474 11.0737 19.3359 11.4297 19.3359H16.5859C16.9419 19.3359 17.2305 19.0474 17.2305 18.6914C17.2305 18.3355 16.9419 18.0469 16.5859 18.0469Z" fill="url(#paint1_linear)"/>
<path d="M16.5859 15.4688H11.4297C11.0737 15.4688 10.7852 15.7573 10.7852 16.1133C10.7852 16.4692 11.0737 16.7578 11.4297 16.7578H16.5859C16.9419 16.7578 17.2305 16.4692 17.2305 16.1133C17.2305 15.7573 16.9419 15.4688 16.5859 15.4688Z" fill="url(#paint2_linear)"/>
<path d="M11.8594 8.59375H12.2891V9.02344C12.2891 9.37939 12.5776 9.66797 12.9336 9.66797C13.2895 9.66797 13.5781 9.37939 13.5781 9.02344V8.59375H14.0078C14.3638 8.59375 14.6523 8.30517 14.6523 7.94922C14.6523 7.59327 14.3638 7.30469 14.0078 7.30469H13.5781V6.875C13.5781 6.51905 13.2895 6.23047 12.9336 6.23047C12.5776 6.23047 12.2891 6.51905 12.2891 6.875V7.30469H11.8594C11.5034 7.30469 11.2148 7.59327 11.2148 7.94922C11.2148 8.30517 11.5034 8.59375 11.8594 8.59375Z" fill="url(#paint3_linear)"/>
<path d="M11.2776 12.4482L8.87943 6.0934C8.8772 6.08747 8.87488 6.08163 8.87247 6.07574C8.75001 5.77809 8.46311 5.58594 8.14132 5.58594H8.14046C7.81837 5.58628 7.53146 5.77912 7.40952 6.07729C7.40754 6.08214 7.40561 6.087 7.40376 6.09185L4.98355 12.4464C4.85684 12.779 5.02381 13.1514 5.35648 13.2781C5.43197 13.3068 5.50949 13.3204 5.58576 13.3204C5.84546 13.3204 6.09025 13.1623 6.18822 12.9051L6.63286 11.7377H9.63169L10.0716 12.9033C10.1973 13.2364 10.5691 13.4045 10.9022 13.2788C11.2352 13.1531 11.4033 12.7813 11.2776 12.4482V12.4482ZM7.12386 10.4486L8.13921 7.78276L9.14528 10.4486H7.12386Z" fill="url(#paint4_linear)"/>
</g>
<defs>
<linearGradient id="paint0_linear" x1="11" y1="0" x2="11" y2="22" gradientUnits="userSpaceOnUse">
<stop stop-color="#6029FB"/>
<stop offset="1" stop-color="#A956C4"/>
</linearGradient>
<linearGradient id="paint1_linear" x1="14.0078" y1="18.0469" x2="14.0078" y2="19.3359" gradientUnits="userSpaceOnUse">
<stop stop-color="#6029FB"/>
<stop offset="1" stop-color="#A956C4"/>
</linearGradient>
<linearGradient id="paint2_linear" x1="14.0078" y1="15.4688" x2="14.0078" y2="16.7578" gradientUnits="userSpaceOnUse">
<stop stop-color="#6029FB"/>
<stop offset="1" stop-color="#A956C4"/>
</linearGradient>
<linearGradient id="paint3_linear" x1="12.9336" y1="6.23047" x2="12.9336" y2="9.66797" gradientUnits="userSpaceOnUse">
<stop stop-color="#6029FB"/>
<stop offset="1" stop-color="#A956C4"/>
</linearGradient>
<linearGradient id="paint4_linear" x1="8.13025" y1="5.58594" x2="8.13025" y2="13.3205" gradientUnits="userSpaceOnUse">
<stop stop-color="#6029FB"/>
<stop offset="1" stop-color="#A956C4"/>
</linearGradient>
<clipPath id="clip0">
<rect width="22" height="22" fill="white"/>
</clipPath>
</defs>
</svg>
