<svg width="21" height="16" viewBox="0 0 21 16" fill="none" xmlns="http://www.w3.org/2000/svg">
<path d="M10.5 16C10.201 16 9.9128 15.9072 9.68818 15.7388C8.83983 15.1035 8.02192 14.5065 7.3003 13.9799L7.29662 13.9772C5.18095 12.4332 3.35399 11.0998 2.08282 9.7863C0.661858 8.31791 0 6.92567 0 5.40473C0 3.92701 0.591682 2.56372 1.66594 1.56581C2.75301 0.556101 4.24464 0 5.86652 0C7.07872 0 8.18887 0.328199 9.16603 0.975406C9.65918 1.3021 10.1062 1.70192 10.5 2.16828C10.894 1.70192 11.3408 1.3021 11.8341 0.975406C12.8113 0.328199 13.9214 0 15.1336 0C16.7554 0 18.2471 0.556101 19.3342 1.56581C20.4085 2.56372 21 3.92701 21 5.40473C21 6.92567 20.3383 8.31791 18.9173 9.78616C17.6462 11.0998 15.8194 12.433 13.704 13.9769C12.9811 14.5043 12.1619 15.1023 11.3117 15.739C11.0872 15.9072 10.7988 16 10.5 16V16ZM5.86652 1.05348C4.59231 1.05348 3.42176 1.48897 2.57021 2.27983C1.70599 3.08263 1.22999 4.19236 1.22999 5.40473C1.22999 6.68391 1.78514 7.82794 3.02987 9.11412C4.23294 10.3574 6.02241 11.6633 8.09434 13.1755L8.09818 13.1782C8.82253 13.7069 9.64364 14.3062 10.4982 14.9461C11.358 14.3049 12.1804 13.7047 12.9061 13.1752C14.9779 11.663 16.7672 10.3574 17.9703 9.11412C19.2149 7.82794 19.77 6.68391 19.77 5.40473C19.77 4.19236 19.294 3.08263 18.4298 2.27983C17.5784 1.48897 16.4077 1.05348 15.1336 1.05348C14.2002 1.05348 13.3432 1.30758 12.5865 1.80866C11.9122 2.25541 11.4424 2.82016 11.167 3.21531C11.0254 3.41852 10.7761 3.53981 10.5 3.53981C10.2239 3.53981 9.97465 3.41852 9.83302 3.21531C9.55776 2.82016 9.08801 2.25541 8.41349 1.80866C7.65678 1.30758 6.79978 1.05348 5.86652 1.05348V1.05348Z" fill="url(#paint0_linear)"/>
<defs>
<linearGradient id="paint0_linear" x1="10.5" y1="0" x2="10.5" y2="16" gradientUnits="userSpaceOnUse">
<stop stop-color="#6029FB"/>
<stop offset="1" stop-color="#A956C4"/>
</linearGradient>
</defs>
</svg>
