<svg width="21" height="16" viewBox="0 0 21 18" fill="none" xmlns="http://www.w3.org/2000/svg">
<g clip-path="url(#clip0)">
<path d="M19.3341 2.55157C18.247 1.54097 16.7554 0.984375 15.1336 0.984375C13.9214 0.984375 12.8113 1.31287 11.834 1.96065C11.3408 2.28763 10.894 2.68767 10.5 3.15459C10.1062 2.68781 9.65918 2.28763 9.16587 1.96065C8.18871 1.31287 7.07856 0.984375 5.86636 0.984375C4.24464 0.984375 2.75285 1.54097 1.66578 2.55157C0.591682 3.55037 0 4.91487 0 6.39391C0 7.9162 0.661858 9.30968 2.08282 10.7794C3.35399 12.094 5.18095 13.4286 7.29662 14.974C8.01904 15.5017 8.83791 16.0999 9.68818 16.7371C9.9128 16.9058 10.201 16.9986 10.5 16.9986C10.7988 16.9986 11.0872 16.9058 11.3115 16.7374C12.1618 16.1001 12.9811 15.5016 13.7039 14.9735C15.8192 13.4285 17.6462 12.094 18.9173 10.7792C20.3383 9.30968 21 7.9162 21 6.39377C21 4.91487 20.4083 3.55037 19.3341 2.55157Z" fill="url(#paint0_linear)"/>
</g>
<defs>
<linearGradient id="paint0_linear" x1="10.5" y1="0.984375" x2="10.5" y2="16.9986" gradientUnits="userSpaceOnUse">
<stop stop-color="#6029FB"/>
<stop offset="1" stop-color="#A956C4"/>
</linearGradient>
<clipPath id="clip0">
<rect width="21" height="18" fill="white"/>
</clipPath>
</defs>
</svg>
