<svg width="20" height="19" viewBox="0 0 21 20" fill="none" xmlns="http://www.w3.org/2000/svg">
<path d="M10 18.3334H2.49999C2.03998 18.3334 1.66667 17.96 1.66667 17.5001V2.50002C1.66667 2.04002 2.04002 1.66671 2.49999 1.66671H10C10.4608 1.66671 10.8333 1.29422 10.8333 0.833394C10.8333 0.372566 10.4608 0 10 0H2.49999C1.12166 0 0 1.1217 0 2.50002V17.5C0 18.8783 1.12166 20 2.49999 20H10C10.4608 20 10.8333 19.6275 10.8333 19.1667C10.8333 18.7059 10.4608 18.3334 10 18.3334Z" fill="url(#paint0_linear)"/>
<path d="M19.8183 9.40667L14.7516 4.40666C14.4249 4.08332 13.8966 4.08751 13.5733 4.41501C13.2499 4.7425 13.2533 5.27 13.5816 5.59334L17.2024 9.16665H7.49994C7.03911 9.16665 6.66663 9.53914 6.66663 9.99997C6.66663 10.4608 7.03911 10.8333 7.49994 10.8333H17.2024L13.5816 14.4066C13.2533 14.73 13.2508 15.2575 13.5733 15.585C13.7366 15.75 13.9516 15.8333 14.1666 15.8333C14.3783 15.8333 14.5899 15.7533 14.7516 15.5933L19.8183 10.5933C19.9766 10.4366 20.0666 10.2232 20.0666 9.99993C20.0666 9.77669 19.9774 9.56418 19.8183 9.40667Z" fill="url(#paint1_linear)"/>
<defs>
<linearGradient id="paint0_linear" x1="5.41667" y1="0" x2="5.41667" y2="20" gradientUnits="userSpaceOnUse">
<stop stop-color="#5C27FE"/>
<stop offset="1" stop-color="#B05ABF"/>
</linearGradient>
<linearGradient id="paint1_linear" x1="13.3666" y1="4.16675" x2="13.3666" y2="15.8333" gradientUnits="userSpaceOnUse">
<stop stop-color="#5C27FE"/>
<stop offset="1" stop-color="#B05ABF"/>
</linearGradient>
</defs>
</svg>
