<svg width="20" height="20" viewBox="0 0 22 22" fill="none" xmlns="http://www.w3.org/2000/svg">
<path d="M11 0C4.92059 0 0 4.91975 0 11C0 12.9294 0.503204 14.8138 1.45876 16.4758L0.0414581 20.8771C-0.0574036 21.1839 0.0238342 21.5203 0.25177 21.7482C0.477524 21.974 0.813049 22.0582 1.12289 21.9585L5.52417 20.5412C7.18619 21.4968 9.0706 22 11 22C17.0794 22 22 17.0802 22 11C22 4.92059 17.0802 0 11 0ZM11 20.2812C9.25725 20.2812 7.55847 19.795 6.0873 18.875C5.87564 18.7428 5.61279 18.707 5.36824 18.7857L2.19107 19.8089L3.21426 16.6318C3.29181 16.3907 3.25908 16.1275 3.1248 15.9127C2.205 14.4415 1.71875 12.7428 1.71875 11C1.71875 5.88235 5.88235 1.71875 11 1.71875C16.1176 1.71875 20.2812 5.88235 20.2812 11C20.2812 16.1176 16.1176 20.2812 11 20.2812ZM12.0742 11C12.0742 11.5932 11.5933 12.0742 11 12.0742C10.4067 12.0742 9.92578 11.5932 9.92578 11C9.92578 10.4067 10.4067 9.92578 11 9.92578C11.5933 9.92578 12.0742 10.4067 12.0742 11ZM16.3711 11C16.3711 11.5932 15.8902 12.0742 15.2969 12.0742C14.7035 12.0742 14.2227 11.5932 14.2227 11C14.2227 10.4067 14.7035 9.92578 15.2969 9.92578C15.8902 9.92578 16.3711 10.4067 16.3711 11ZM7.77734 11C7.77734 11.5932 7.29646 12.0742 6.70312 12.0742C6.10995 12.0742 5.62891 11.5932 5.62891 11C5.62891 10.4067 6.10995 9.92578 6.70312 9.92578C7.29646 9.92578 7.77734 10.4067 7.77734 11Z" fill="url(#paint0_linear)"/>
<defs>
<linearGradient id="paint0_linear" x1="11" y1="0" x2="11" y2="22" gradientUnits="userSpaceOnUse">
<stop stop-color="#6029FB"/>
<stop offset="1" stop-color="#A956C4"/>
</linearGradient>
</defs>
</svg>
