<svg width="20" height="20" viewBox="0 0 20 20" fill="none" xmlns="http://www.w3.org/2000/svg">
<path d="M19.7122 14.0268C19.6938 13.9097 19.6657 13.7943 19.6281 13.6818C19.2686 12.6814 18.2436 12.0828 17.1956 12.2613C16.849 12.3159 16.5237 12.0791 16.469 11.7325L15.9416 8.35842C15.5088 5.5037 13.4465 3.16588 10.6681 2.38034C10.4154 0.833781 8.95685 -0.215135 7.41025 0.0375658C5.88412 0.28693 4.83867 1.71235 5.05938 3.2429C2.66448 4.75852 1.40031 7.5532 1.84333 10.3525L2.4084 13.9436C2.46015 14.2896 2.22472 14.6131 1.87965 14.6703C0.827398 14.8221 0.035436 15.7065 0.000116243 16.769C-0.0120601 17.9481 0.933899 18.9138 2.11296 18.926C2.12034 18.9261 2.12776 18.9261 2.13514 18.9261C2.24644 18.926 2.35753 18.9175 2.46749 18.9005L4.65802 18.5561C5.42004 19.9164 7.14054 20.4014 8.50087 19.6394C9.21939 19.2369 9.72634 18.5408 9.88884 17.7334L17.9344 16.4673C19.0992 16.2843 19.8952 15.1917 19.7122 14.0268ZM7.65774 1.51428C7.73192 1.50273 7.80686 1.49677 7.88192 1.49647C8.359 1.49902 8.8034 1.73925 9.06686 2.13698H9.0327C8.76729 2.12898 8.50157 2.13661 8.23703 2.15975C7.95844 2.18635 7.68159 2.22914 7.40791 2.28785C7.34883 2.29994 7.29049 2.31704 7.23211 2.33126C7.00793 2.38393 6.78801 2.44585 6.57238 2.51916C6.55103 2.52558 6.52897 2.52913 6.50762 2.53697C6.65778 2.00033 7.10726 1.60064 7.65774 1.51428ZM7.11685 18.5767C6.81524 18.577 6.5215 18.4802 6.27923 18.3006L8.27193 17.9881C8.00376 18.3584 7.57405 18.5774 7.11685 18.5767ZM18.2097 14.7287C18.1008 14.9076 17.9186 15.0295 17.7116 15.0617L9.13946 16.4096L4.97402 17.0651L2.24832 17.4921C2.04182 17.5258 1.83107 17.4658 1.67328 17.3284C1.51223 17.1911 1.4207 16.9892 1.4235 16.7776C1.45431 16.4126 1.73733 16.1195 2.10099 16.0758C3.22188 15.8962 3.98724 14.8449 3.81398 13.7231L3.24961 10.132C2.87999 7.76282 4.03036 5.41525 6.12907 4.25566C6.14141 4.25154 6.1535 4.24678 6.16535 4.24144C6.84647 3.8724 7.59573 3.64618 8.36726 3.57675C8.60107 3.55619 8.83597 3.55169 9.0704 3.56324L9.18712 3.56895C9.42964 3.58363 9.67092 3.61403 9.90948 3.66007C9.91732 3.66007 9.92441 3.66007 9.93225 3.66007C12.3403 4.18102 14.1732 6.14033 14.5325 8.57776L15.0635 11.9518C15.2399 13.0748 16.2932 13.8423 17.4162 13.6663C17.7752 13.5962 18.1341 13.7875 18.276 14.1246C18.3453 14.3256 18.321 14.5473 18.2097 14.7287Z" fill="url(#paint0_linear)"/>
<defs>
<linearGradient id="paint0_linear" x1="9.8692" y1="0" x2="9.8692" y2="20" gradientUnits="userSpaceOnUse">
<stop stop-color="#5C27FE"/>
<stop offset="1" stop-color="#B05ABF"/>
</linearGradient>
</defs>
</svg>
