<svg width="20" height="20" viewBox="0 0 9 9" fill="none" xmlns="http://www.w3.org/2000/svg">
<path d="M8.23717 0.760773C7.25077 -0.253785 5.67385 -0.253564 4.6877 0.761275L0.551687 5.10906C-0.196186 5.91376 -0.181894 7.20339 0.583611 7.98956C1.33652 8.7628 2.53897 8.7628 3.29188 7.98956L7.03711 4.05258C7.52399 3.54077 7.52399 2.71094 7.03711 2.19912C6.55022 1.68731 5.76081 1.68731 5.27392 2.19912L1.69153 5.96491C1.56658 6.10091 1.57017 6.31763 1.69954 6.44898C1.82575 6.57712 2.02583 6.57712 2.15204 6.44898L5.73442 2.68319C5.97197 2.44397 6.34904 2.45249 6.5766 2.70221C6.79728 2.94439 6.79728 3.32633 6.5766 3.56851L2.83139 7.50546C2.32544 8.02975 1.51095 8.02362 1.0122 7.49176C0.518484 6.96529 0.518484 6.11961 1.0122 5.59313L5.14821 1.24535C5.88494 0.470616 7.0796 0.470395 7.8166 1.24482C8.5536 2.01925 8.55381 3.2751 7.8171 4.04983L3.68107 8.39762C3.54446 8.52061 3.52854 8.73672 3.64554 8.88033C3.76253 9.02393 3.96812 9.04066 4.10473 8.91768C4.11748 8.9062 4.12935 8.89373 4.14026 8.88033L8.27629 4.53254C9.2563 3.47965 9.2388 1.79096 8.23717 0.760773Z" fill="url(#paint0_linear)"/>
<defs>
<linearGradient id="paint0_linear" x1="4.5" y1="0" x2="4.5" y2="9" gradientUnits="userSpaceOnUse">
<stop stop-color="#5C27FE"/>
<stop offset="1" stop-color="#B05ABF"/>
</linearGradient>
</defs>
</svg>
