<svg width="40" height="30" viewBox="0 0 40 30" fill="none" xmlns="http://www.w3.org/2000/svg">
<path d="M38.6712 8.18592L22.7262 0.508092C21.3517 -0.169364 19.0149 -0.169364 17.6403 0.508092L1.32875 8.18592C0.183276 8.72789 0 9.49567 0 9.90214C0 10.3086 0.183276 11.0312 1.32875 11.6184L2.6575 12.2507V19.4769C1.83276 19.793 1.23711 20.6059 1.23711 21.5092C1.23711 22.4125 1.83276 23.2254 2.61168 23.5416L0.549828 30H6.32302L4.26117 23.5416C5.08591 23.2254 5.63574 22.4125 5.63574 21.5092C5.63574 20.5608 5.04009 19.793 4.21535 19.4769V13.0184L6.64376 14.1927V23.5868C6.64376 23.7222 6.68958 23.8577 6.78121 23.9932C7.01031 24.2642 11.2715 30 19.9771 30C28.6827 30 32.9439 24.219 33.1271 23.9932C33.2188 23.8577 33.2646 23.7222 33.2646 23.5868V14.2379L38.6712 11.6184C39.8167 11.0764 40 10.3086 40 9.90214C39.9542 9.49567 39.8167 8.72789 38.6712 8.18592ZM31.7984 23.3609C31.0653 24.2642 27.1249 28.5999 19.9771 28.5999C12.8293 28.5999 8.88889 24.2642 8.15578 23.3609V14.825L17.6403 19.2962C18.3276 19.6123 19.244 19.793 20.1604 19.793C21.1226 19.793 22.0389 19.6123 22.7262 19.251L31.7984 14.8702V23.3609ZM38.0298 10.3538L32.5315 13.0184C32.3024 13.0184 32.1191 13.1088 32.0275 13.2894L22.0848 18.0316C21.1226 18.5284 19.244 18.5284 18.236 18.0316L6.00229 12.2507L20.0687 10.6248C20.4811 10.5796 20.756 10.2183 20.7102 9.85698C20.6644 9.45051 20.2978 9.17953 19.9313 9.22469L3.6197 11.1216L1.97022 10.3538C1.55785 10.1731 1.46621 9.94731 1.46621 9.94731C1.46621 9.90215 1.55785 9.72149 1.97022 9.54084L18.2818 1.81784C18.7858 1.59202 19.4731 1.45653 20.1604 1.45653C20.8935 1.45653 21.6266 1.59202 22.0848 1.81784L38.0298 9.49567C38.4422 9.67633 38.5338 9.85698 38.5338 9.94731C38.5338 9.94731 38.3963 10.1731 38.0298 10.3538Z" fill="url(#paint0_linear)"/>
<defs>
<linearGradient id="paint0_linear" x1="20" y1="0" x2="20" y2="30" gradientUnits="userSpaceOnUse">
<stop stop-color="#6029FB"/>
<stop offset="1" stop-color="#A956C4"/>
</linearGradient>
</defs>
</svg>
