<svg width="31" height="30" viewBox="0 0 31 30" fill="none" xmlns="http://www.w3.org/2000/svg">
<path d="M30.5933 2.365C30.3715 2.29051 30.1127 2.32776 29.9648 2.47673L3.64162 28.9944C3.45677 29.1806 3.4198 29.4041 3.53071 29.6276C3.60465 29.851 3.82648 30 4.08527 30H30.4085C30.7412 30 31 29.7393 31 29.4041V2.92366C30.963 2.66295 30.8152 2.43949 30.5933 2.365ZM29.78 9.21789H27.155C26.8223 9.21789 26.5635 9.47859 26.5635 9.81379C26.5635 10.149 26.8223 10.4097 27.155 10.4097H29.78V13.352H28.0423C27.7096 13.352 27.4508 13.6127 27.4508 13.9479C27.4508 14.2831 27.7096 14.5438 28.0423 14.5438H29.78V17.0391H27.155C26.8223 17.0391 26.5635 17.2998 26.5635 17.635C26.5635 17.9702 26.8223 18.2309 27.155 18.2309H29.78V21.1732H28.0423C27.7096 21.1732 27.4508 21.4339 27.4508 21.7691C27.4508 22.1043 27.7096 22.365 28.0423 22.365H29.78V24.8603H27.155C26.8223 24.8603 26.5635 25.121 26.5635 25.4562C26.5635 25.7914 26.8223 26.0521 27.155 26.0521H29.78V28.9944H5.45319V28.8454L29.78 4.33893V9.21789Z" fill="url(#paint0_linear)"/>
<path d="M25.1586 14.9535C24.9368 14.879 24.678 14.9163 24.5301 15.0652L16.8032 22.8492C16.6184 23.0354 16.5814 23.2589 16.6923 23.4824C16.7663 23.7058 16.9881 23.8548 17.2469 23.8548H24.9368C25.2695 23.8548 25.5283 23.5941 25.5283 23.2589V15.5122C25.4914 15.2515 25.3805 15.0652 25.1586 14.9535ZM24.3453 22.663H18.6148L24.3453 16.9274V22.663Z" fill="url(#paint1_linear)"/>
<path d="M27.3029 0.167598C27.0811 -0.0558659 26.7114 -0.0558659 26.4896 0.167598L0.166369 26.648C-0.0554562 26.8715 -0.0554562 27.2439 0.166369 27.4674C0.277281 27.5791 0.425164 27.6536 0.573047 27.6536C0.72093 27.6536 0.868813 27.5791 0.979726 27.4674L27.3029 0.986964C27.5247 0.763501 27.5247 0.391061 27.3029 0.167598Z" fill="url(#paint2_linear)"/>
<defs>
<linearGradient id="paint0_linear" x1="17.2342" y1="2.32776" x2="17.2342" y2="30" gradientUnits="userSpaceOnUse">
<stop stop-color="#6029FB"/>
<stop offset="1" stop-color="#A956C4"/>
</linearGradient>
<linearGradient id="paint1_linear" x1="21.0791" y1="14.9163" x2="21.0791" y2="23.8548" gradientUnits="userSpaceOnUse">
<stop stop-color="#6029FB"/>
<stop offset="1" stop-color="#A956C4"/>
</linearGradient>
<linearGradient id="paint2_linear" x1="13.7346" y1="0" x2="13.7346" y2="27.6536" gradientUnits="userSpaceOnUse">
<stop stop-color="#6029FB"/>
<stop offset="1" stop-color="#A956C4"/>
</linearGradient>
</defs>
</svg>
