<svg width="41" height="30" viewBox="0 0 41 30" fill="none" xmlns="http://www.w3.org/2000/svg">
<path d="M40.2053 2.49642C40.2026 2.49642 40.1999 2.49642 40.1973 2.49642H37.5032V1.55624C37.5177 1.18411 37.2817 0.849679 36.931 0.745732C35.0606 0.245854 33.1346 -0.0047936 31.201 6.9422e-05C28.0221 6.9422e-05 23.6908 0.729522 20.4881 4.05258C17.3092 0.697102 12.9461 6.9422e-05 9.77515 6.9422e-05C7.84158 -0.0047936 5.91556 0.245854 4.04516 0.745732C3.69449 0.849679 3.45846 1.18411 3.47296 1.55624V2.48831H0.794728C0.355839 2.48831 0 2.85122 0 3.29882V29.1863C0 29.6339 0.355839 29.9968 0.794728 29.9968C0.931222 29.9964 1.06533 29.9601 1.18414 29.8914C1.26362 29.8509 9.21089 25.4174 20.3053 28.2704H20.4245H20.496C20.5594 28.2782 20.6234 28.2782 20.6868 28.2704C31.8129 25.3931 39.7602 29.8185 39.8079 29.8914C40.0538 30.0362 40.3568 30.0362 40.6026 29.8914C40.847 29.7476 40.9983 29.4822 41 29.1944V3.30692C41 2.85932 40.6443 2.49642 40.2053 2.49642ZM1.58946 27.8976V4.11742H3.48885V24.4448C3.48389 24.8924 3.83565 25.2594 4.27454 25.2645C4.31746 25.265 4.36037 25.2619 4.40279 25.2553C6.04688 24.9993 7.70677 24.8639 9.36984 24.8501C11.6736 24.8094 13.9676 25.1627 16.1568 25.8956C11.2131 25.2859 6.19858 25.9751 1.58946 27.8976ZM9.36984 23.2372C7.92433 23.2405 6.48051 23.3353 5.04652 23.5209V2.19653C6.59386 1.84498 8.17397 1.66555 9.75926 1.6616C12.7315 1.6616 16.8323 2.35863 19.6775 5.63306L19.7013 25.8227C18.0483 24.7204 14.8217 23.2372 9.36984 23.2372ZM21.2908 5.63306C24.1359 2.39105 28.2367 1.6616 31.209 1.6616C32.7941 1.66636 34.3743 1.84569 35.9217 2.19653V23.5209C34.4958 23.3335 33.0599 23.2361 31.6222 23.2291C26.2022 23.2291 22.9676 24.7123 21.2908 25.8146V5.63306V5.63306ZM39.4026 27.8976C34.7836 25.9698 29.7576 25.2806 24.8035 25.8956C27.003 25.1601 29.308 24.8066 31.6222 24.8501C33.2957 24.8596 34.9663 24.9923 36.6211 25.2472C37.055 25.3144 37.4602 25.0101 37.526 24.5675C37.5325 24.5243 37.5355 24.4805 37.535 24.4367V4.11742H39.4344L39.4026 27.8976Z" fill="url(#paint0_linear)"/>
<defs>
<linearGradient id="paint0_linear" x1="20.5" y1="0" x2="20.5" y2="30" gradientUnits="userSpaceOnUse">
<stop stop-color="#6029FB"/>
<stop offset="1" stop-color="#A956C4"/>
</linearGradient>
</defs>
</svg>
