<svg width="22" height="20" viewBox="0 0 22 20" fill="none" xmlns="http://www.w3.org/2000/svg">
<path d="M8.29197 8.03875C9.12672 8.03875 9.80342 7.34402 9.80342 6.48703C9.80342 5.63003 9.12672 4.9353 8.29197 4.9353C7.45722 4.9353 6.78052 5.63003 6.78052 6.48703C6.78052 7.34402 7.45722 8.03875 8.29197 8.03875Z" fill="url(#paint0_linear)"/>
<path d="M20.6985 12.1983C19.9847 11.5086 19.0821 11.056 18.0954 10.9267V3.03879C18.0954 2.19828 17.7595 1.44397 17.2347 0.883621C16.6889 0.323276 15.9542 0 15.1355 0H2.95992C2.14122 0 1.40649 0.344828 0.860687 0.883621C0.314885 1.44397 0 2.19828 0 3.03879V12.9741V13.9009V15.9052C0 16.7457 0.335878 17.5 0.860687 18.0603C1.40649 18.6207 2.14122 18.944 2.95992 18.944H14.7366C15.5134 19.5905 16.479 20 17.5496 20C18.7882 20 19.9008 19.4828 20.6985 18.6638C21.4962 17.8448 22 16.7026 22 15.431C22 14.1595 21.4962 13.0172 20.6985 12.1983ZM1.1126 3.03879C1.1126 2.52155 1.32252 2.04741 1.6584 1.70259C1.99427 1.35776 2.45611 1.14224 2.95992 1.14224H15.1355C15.6393 1.14224 16.1011 1.35776 16.437 1.70259C16.7729 2.04741 16.9828 2.52155 16.9828 3.03879V9.76293L13.876 6.59483C13.666 6.37931 13.3092 6.35776 13.0782 6.59483L8.39695 11.4224L5.2271 8.14655C5.01718 7.93103 4.66031 7.90948 4.42939 8.14655L1.1126 11.5948V3.03879V3.03879ZM2.93893 17.8233V17.8017C2.43511 17.8017 1.97328 17.5862 1.6374 17.2414C1.32252 16.8966 1.1126 16.4224 1.1126 15.9052V13.9009V13.2112L4.84924 9.375L8.01908 12.6293C8.22901 12.8448 8.58588 12.8448 8.81679 12.6293L13.4981 7.80172L16.563 10.9698C16.5 10.9914 16.437 11.0129 16.374 11.0345C16.2901 11.056 16.2061 11.0776 16.1011 11.1207C16.0172 11.1422 15.9332 11.1853 15.8492 11.2069C15.7863 11.2284 15.7443 11.25 15.6813 11.2931C15.5973 11.3362 15.5343 11.3578 15.4714 11.4009C15.3664 11.4655 15.2614 11.5302 15.1565 11.5948C15.0935 11.6379 15.0515 11.6595 14.9885 11.7026C14.9466 11.7241 14.9256 11.7457 14.8836 11.7672C14.6947 11.8966 14.5267 12.0474 14.3798 12.2198C13.5821 13.0388 13.0782 14.181 13.0782 15.4526C13.0782 15.7759 13.1202 16.0776 13.1832 16.4009C13.2042 16.4871 13.2252 16.5517 13.2462 16.6379C13.3092 16.8534 13.3721 17.069 13.4561 17.2845V17.306C13.5401 17.4784 13.624 17.6724 13.729 17.8233H2.93893V17.8233ZM19.8798 17.8448C19.271 18.4698 18.4523 18.8362 17.5286 18.8362C16.6469 18.8362 15.8282 18.4698 15.2405 17.8879C15.1565 17.8017 15.0725 17.694 14.9885 17.6078C14.9256 17.5431 14.8626 17.4569 14.7996 17.3922C14.7156 17.2845 14.6527 17.1552 14.5897 17.0259C14.5477 16.9397 14.5057 16.875 14.4637 16.7888C14.4218 16.681 14.3798 16.5517 14.3588 16.4224C14.3378 16.3362 14.2958 16.2284 14.2748 16.1422C14.2328 15.9267 14.2118 15.6897 14.2118 15.4526C14.2118 14.5043 14.5897 13.6638 15.1775 13.0388C15.7863 12.4138 16.605 12.0474 17.5286 12.0474C18.4523 12.0474 19.271 12.4353 19.8798 13.0388C20.4885 13.6422 20.8454 14.5043 20.8454 15.4526C20.8454 16.3793 20.4676 17.2198 19.8798 17.8448Z" fill="url(#paint1_linear)"/>
<path d="M19.3549 14.8492H18.0744V13.5345C18.0744 13.2113 17.8225 12.9526 17.5076 12.9526C17.1927 12.9526 16.9408 13.2113 16.9408 13.5345V14.8492H15.6602C15.3454 14.8492 15.0934 15.1078 15.0934 15.4311C15.0934 15.7544 15.3454 16.013 15.6602 16.013H16.9408V17.3276C16.9408 17.6509 17.1927 17.9095 17.5076 17.9095C17.8225 17.9095 18.0744 17.6509 18.0744 17.3276V16.013H19.3549C19.6698 16.013 19.9217 15.7544 19.9217 15.4311C19.9217 15.1078 19.6698 14.8492 19.3549 14.8492Z" fill="url(#paint2_linear)"/>
<defs>
<linearGradient id="paint0_linear" x1="8.29197" y1="4.9353" x2="8.29197" y2="8.03875" gradientUnits="userSpaceOnUse">
<stop stop-color="#6029FB"/>
<stop offset="1" stop-color="#A956C4"/>
</linearGradient>
<linearGradient id="paint1_linear" x1="11" y1="0" x2="11" y2="20" gradientUnits="userSpaceOnUse">
<stop stop-color="#6029FB"/>
<stop offset="1" stop-color="#A956C4"/>
</linearGradient>
<linearGradient id="paint2_linear" x1="17.5076" y1="12.9526" x2="17.5076" y2="17.9095" gradientUnits="userSpaceOnUse">
<stop stop-color="#6029FB"/>
<stop offset="1" stop-color="#A956C4"/>
</linearGradient>
</defs>
</svg>
