<svg width="10" height="10" viewBox="0 0 10 10" fill="none" xmlns="http://www.w3.org/2000/svg">
<path d="M5 6.875C4.93648 7.06871 4.70761 7.24072 4.36111 7.34855C3.48114 7.62238 2.93673 8.01301 2.8313 8.4375H7.1687C7.06323 8.01301 6.51885 7.62238 5.63889 7.34855C5.29238 7.24072 5.06351 7.06871 5 6.875Z" fill="url(#paint0_linear)"/>
<path d="M3.12695 2.5C3.38926 2.99961 3.80918 3.44688 4.36113 3.7998C4.53045 3.90747 4.67496 4.04987 4.7851 4.21758C4.89524 4.3853 4.96849 4.5745 5 4.77266C5.03151 4.5745 5.10476 4.3853 5.2149 4.21758C5.32504 4.04987 5.46955 3.90747 5.63887 3.7998C6.19082 3.44688 6.61074 2.99961 6.87305 2.5H3.12695Z" fill="url(#paint1_linear)"/>
<path d="M5.97557 4.32631C7.09387 3.61133 7.8125 2.4992 7.8125 1.25C7.89538 1.25 7.97487 1.21708 8.03347 1.15847C8.09208 1.09987 8.125 1.02038 8.125 0.9375V0.46875H1.875V0.917969C1.87504 1.0026 1.90741 1.08401 1.96551 1.14555C2.0236 1.20709 2.10302 1.2441 2.1875 1.249V1.25C2.1875 2.4992 2.90613 3.61133 4.02443 4.32631C4.51582 4.64049 4.51582 5.35951 4.02443 5.67369C2.90613 6.38867 2.1875 7.5008 2.1875 8.75V8.751C2.10302 8.7559 2.0236 8.79291 1.96551 8.85445C1.90741 8.91599 1.87504 8.9974 1.875 9.08203V9.53125H8.125V9.0625C8.125 8.97962 8.09208 8.90013 8.03347 8.84153C7.97487 8.78292 7.89538 8.75 7.8125 8.75C7.8125 7.5008 7.09387 6.38867 5.97557 5.67369C5.48418 5.35951 5.48418 4.64049 5.97557 4.32631ZM5.29453 5C5.29402 5.18674 5.34077 5.37058 5.43041 5.53441C5.52005 5.69823 5.64968 5.83671 5.80723 5.93697C6.88301 6.62477 7.5 7.6501 7.5 8.75H2.5C2.5 7.6501 3.11699 6.62477 4.19277 5.93697C4.34997 5.83634 4.47932 5.69778 4.56892 5.53404C4.65851 5.3703 4.70547 5.18665 4.70547 5C4.70547 4.81335 4.65851 4.6297 4.56892 4.46596C4.47932 4.30222 4.34997 4.16366 4.19277 4.06303C3.11699 3.37523 2.5 2.3499 2.5 1.25H7.5C7.5 2.3499 6.88301 3.37523 5.80723 4.06303C5.64968 4.16329 5.52005 4.30177 5.43041 4.46559C5.34077 4.62942 5.29402 4.81326 5.29453 5V5Z" fill="url(#paint2_linear)"/>
<path d="M5 5.61498C5.03885 5.61498 5.07611 5.59955 5.10358 5.57208C5.13105 5.54461 5.14648 5.50735 5.14648 5.4685V5.3125C5.14648 5.27365 5.13105 5.23639 5.10358 5.20892C5.07611 5.18145 5.03885 5.16602 5 5.16602C4.96115 5.16602 4.92389 5.18145 4.89642 5.20892C4.86895 5.23639 4.85352 5.27365 4.85352 5.3125V5.4685C4.85352 5.50735 4.86895 5.54461 4.89642 5.57208C4.92389 5.59955 4.96115 5.61498 5 5.61498Z" fill="url(#paint3_linear)"/>
<path d="M4.85352 6.24975C4.85352 6.2886 4.86895 6.32586 4.89642 6.35333C4.92389 6.3808 4.96115 6.39623 5 6.39623C5.03885 6.39623 5.07611 6.3808 5.10358 6.35333C5.13105 6.32586 5.14648 6.2886 5.14648 6.24975V6.09375C5.14648 6.0549 5.13105 6.01764 5.10358 5.99017C5.07611 5.9627 5.03885 5.94727 5 5.94727C4.96115 5.94727 4.92389 5.9627 4.89642 5.99017C4.86895 6.01764 4.85352 6.0549 4.85352 6.09375V6.24975Z" fill="url(#paint4_linear)"/>
<defs>
<linearGradient id="paint0_linear" x1="5" y1="6.875" x2="5" y2="8.4375" gradientUnits="userSpaceOnUse">
<stop stop-color="#6029FB"/>
<stop offset="1" stop-color="#A956C4"/>
</linearGradient>
<linearGradient id="paint1_linear" x1="5" y1="2.5" x2="5" y2="4.77266" gradientUnits="userSpaceOnUse">
<stop stop-color="#6029FB"/>
<stop offset="1" stop-color="#A956C4"/>
</linearGradient>
<linearGradient id="paint2_linear" x1="5" y1="0.46875" x2="5" y2="9.53125" gradientUnits="userSpaceOnUse">
<stop stop-color="#6029FB"/>
<stop offset="1" stop-color="#A956C4"/>
</linearGradient>
<linearGradient id="paint3_linear" x1="5" y1="5.16602" x2="5" y2="5.61498" gradientUnits="userSpaceOnUse">
<stop stop-color="#6029FB"/>
<stop offset="1" stop-color="#A956C4"/>
</linearGradient>
<linearGradient id="paint4_linear" x1="5" y1="5.94727" x2="5" y2="6.39623" gradientUnits="userSpaceOnUse">
<stop stop-color="#6029FB"/>
<stop offset="1" stop-color="#A956C4"/>
</linearGradient>
</defs>
</svg>
