<svg width="20" height="16" viewBox="0 0 20 16" fill="none" xmlns="http://www.w3.org/2000/svg">
<path d="M19.8284 0.137318C19.6626 0.0046931 19.414 -0.0360882 19.1965 0.0335369L0.36834 6.05848C0.152911 6.12742 0.00865305 6.29155 0.00037181 6.47708C-0.00787037 6.66258 0.121504 6.83449 0.330254 6.91549L7.75477 9.79615L11.3556 15.7358C11.4538 15.8978 11.6589 16 11.8827 16C11.8897 16 11.8966 15.9999 11.9036 15.9997C12.1355 15.9931 12.3407 15.8777 12.4268 15.7053L19.9581 0.642882C20.0451 0.468756 19.9941 0.269912 19.8284 0.137318ZM2.0349 6.53492L16.9812 1.75213L8.07384 8.87799L2.0349 6.53492ZM11.8313 14.3721L8.90247 9.54087L17.8099 2.41501L11.8313 14.3721Z" fill="url(#paint0_linear)"/>
<defs>
<linearGradient id="paint0_linear" x1="10" y1="0" x2="10" y2="16" gradientUnits="userSpaceOnUse">
<stop stop-color="#6029FB"/>
<stop offset="1" stop-color="#A956C4"/>
</linearGradient>
</defs>
</svg>
